<mxfile host="app.diagrams.net" agent="Mozilla/5.0 (Macintosh; Intel Mac OS X 10.15; rv:140.0) Gecko/20100101 Firefox/140.0" version="28.0.5">
  <diagram id="IwGoDYMSzOG72_LcMlLt" name="[0] lab topo">
    <mxGraphModel dx="739" dy="907" grid="1" gridSize="1" guides="1" tooltips="1" connect="1" arrows="1" fold="1" page="1" pageScale="1" pageWidth="827" pageHeight="1169" background="#4D5766" math="0" shadow="0">
      <root>
        <mxCell id="0" />
        <mxCell id="1" parent="0" />
        <mxCell id="LmgRk4A9lyCZ9ittZ9rM-1" value="" style="rounded=0;whiteSpace=wrap;html=1;fontSize=12;align=center;fontFamily=Manrope;fontSource=https%3A%2F%2Ffonts.googleapis.com%2Fcss%3Ffamily%3DManrope;fontColor=#FFFFFF;dashed=1;strokeColor=none;fillColor=#DDE9F5;" parent="1" vertex="1">
          <mxGeometry x="40" y="205" width="430" height="285" as="geometry" />
        </mxCell>
        <mxCell id="LmgRk4A9lyCZ9ittZ9rM-2" value="&lt;span style=&quot;font-size: 14px&quot;&gt;Lab host&lt;/span&gt;" style="rounded=0;whiteSpace=wrap;html=1;fontSize=12;align=center;fontFamily=Manrope;fontSource=https%3A%2F%2Ffonts.googleapis.com%2Fcss%3Ffamily%3DManrope;dashed=1;strokeColor=none;fillColor=#98A2AE;fontColor=#FFFFFF;" parent="1" vertex="1">
          <mxGeometry x="40" y="185" width="430" height="20" as="geometry" />
        </mxCell>
        <mxCell id="LmgRk4A9lyCZ9ittZ9rM-3" value="" style="rounded=0;whiteSpace=wrap;html=1;fontSize=12;align=center;strokeColor=none;fontFamily=Manrope;fontSource=https%3A%2F%2Ffonts.googleapis.com%2Fcss%3Ffamily%3DManrope;fontColor=#DDE9F5;fillColor=#BEC8D2;" parent="1" vertex="1">
          <mxGeometry x="76.5" y="365" width="163.5" height="107.5" as="geometry" />
        </mxCell>
        <mxCell id="LmgRk4A9lyCZ9ittZ9rM-4" value="SR Linux" style="rounded=0;whiteSpace=wrap;html=1;fontSize=12;align=center;strokeColor=none;fontFamily=Manrope;fontSource=https%3A%2F%2Ffonts.googleapis.com%2Fcss%3Ffamily%3DManrope;fontColor=#FFFFFF;fillColor=#124191;" parent="1" vertex="1">
          <mxGeometry x="80" y="400" width="120" height="37.5" as="geometry" />
        </mxCell>
        <mxCell id="LmgRk4A9lyCZ9ittZ9rM-5" value="mgmt0" style="rounded=0;whiteSpace=wrap;html=1;fontFamily=Manrope;fontSize=12;fontColor=#FFFFFF;align=center;fillColor=#4BDD33;strokeColor=none;" parent="1" vertex="1">
          <mxGeometry x="118.25" y="385" width="43.5" height="15" as="geometry" />
        </mxCell>
        <mxCell id="LmgRk4A9lyCZ9ittZ9rM-6" value="" style="rounded=0;whiteSpace=wrap;html=1;fontSize=12;align=center;strokeColor=none;fontFamily=Manrope;fontSource=https%3A%2F%2Ffonts.googleapis.com%2Fcss%3Ffamily%3DManrope;fontColor=#FFFFFF;fillColor=#BEC8D2;" parent="1" vertex="1">
          <mxGeometry x="76.5" y="216" width="383.5" height="126" as="geometry" />
        </mxCell>
        <mxCell id="LmgRk4A9lyCZ9ittZ9rM-7" value="&lt;font face=&quot;Fira Code&quot; data-font-src=&quot;https://fonts.googleapis.com/css?family=Fira+Code&quot; style=&quot;font-size: 10px&quot;&gt;&lt;br&gt;&lt;/font&gt;" style="rounded=0;whiteSpace=wrap;html=1;fontSize=12;align=left;strokeColor=none;fontFamily=Manrope;fontSource=https%3A%2F%2Ffonts.googleapis.com%2Fcss%3Ffamily%3DManrope;fontColor=#FFFFFF;spacingLeft=4;fillColor=#124191;verticalAlign=middle;connectable=0;" parent="1" vertex="1">
          <mxGeometry x="85" y="240" width="365" height="95" as="geometry" />
        </mxCell>
        <mxCell id="LmgRk4A9lyCZ9ittZ9rM-8" value="veth&lt;font color=&quot;#bec8d2&quot;&gt;XXX&lt;/font&gt;" style="rounded=0;whiteSpace=wrap;html=1;fontFamily=Manrope;fontSize=12;fontColor=#FFFFFF;align=center;fillColor=#4BDD33;strokeColor=none;" parent="1" vertex="1">
          <mxGeometry x="113.63" y="307.5" width="52.75" height="17.5" as="geometry" />
        </mxCell>
        <mxCell id="LmgRk4A9lyCZ9ittZ9rM-9" style="edgeStyle=orthogonalEdgeStyle;rounded=0;orthogonalLoop=1;jettySize=auto;html=1;exitX=0.5;exitY=0;exitDx=0;exitDy=0;entryX=0.5;entryY=1;entryDx=0;entryDy=0;fontFamily=Manrope;fontSize=12;fontColor=#FFFFFF;endArrow=oval;endFill=1;startArrow=oval;startFill=1;strokeColor=#4BDD33;" parent="1" source="LmgRk4A9lyCZ9ittZ9rM-5" target="LmgRk4A9lyCZ9ittZ9rM-8" edge="1">
          <mxGeometry relative="1" as="geometry" />
        </mxCell>
        <mxCell id="LmgRk4A9lyCZ9ittZ9rM-10" value="&lt;font color=&quot;#dde9f5&quot;&gt;netns:&lt;/font&gt;&amp;nbsp;default" style="rounded=0;whiteSpace=wrap;html=1;fontSize=12;align=center;fontFamily=Manrope;fontSource=https%3A%2F%2Ffonts.googleapis.com%2Fcss%3Ffamily%3DManrope;fontColor=#FFFFFF;fillColor=#98A2AE;rotation=0;strokeColor=none;horizontal=0;verticalAlign=middle;" parent="1" vertex="1">
          <mxGeometry x="50" y="216" width="26.5" height="126" as="geometry" />
        </mxCell>
        <mxCell id="LmgRk4A9lyCZ9ittZ9rM-11" value="&lt;font color=&quot;#dde9f5&quot;&gt;netns:&lt;/font&gt;&amp;nbsp;container1" style="rounded=0;whiteSpace=wrap;html=1;fontSize=12;align=center;fontFamily=Manrope;fontSource=https%3A%2F%2Ffonts.googleapis.com%2Fcss%3Ffamily%3DManrope;fontColor=#FFFFFF;fillColor=#98A2AE;rotation=0;strokeColor=none;horizontal=0;verticalAlign=middle;" parent="1" vertex="1">
          <mxGeometry x="50" y="365" width="26.5" height="107.5" as="geometry" />
        </mxCell>
        <mxCell id="LmgRk4A9lyCZ9ittZ9rM-12" value="&lt;font color=&quot;#bec8d2&quot;&gt;docker network:&lt;/font&gt; clab&lt;font face=&quot;Fira Code&quot; data-font-src=&quot;https://fonts.googleapis.com/css?family=Fira+Code&quot; style=&quot;font-size: 10px&quot;&gt;&lt;br&gt;&lt;/font&gt;" style="rounded=0;whiteSpace=wrap;html=1;fontSize=12;align=left;strokeColor=none;fontFamily=Manrope;fontSource=https%3A%2F%2Ffonts.googleapis.com%2Fcss%3Ffamily%3DManrope;fontColor=#FFFFFF;spacingLeft=4;fillColor=#001135;" parent="1" vertex="1">
          <mxGeometry x="85" y="220" width="365" height="20" as="geometry" />
        </mxCell>
        <mxCell id="LmgRk4A9lyCZ9ittZ9rM-13" value="&lt;font&gt;Lab wiring diagram&lt;/font&gt;" style="text;html=1;align=center;verticalAlign=middle;resizable=0;points=[];autosize=1;fontSize=14;fontFamily=Manrope;fontStyle=0;fontColor=#FFFFFF;" parent="1" vertex="1">
          <mxGeometry x="185" y="490" width="135" height="25" as="geometry" />
        </mxCell>
        <mxCell id="LmgRk4A9lyCZ9ittZ9rM-14" value="br-&lt;font color=&quot;#98a2ae&quot;&gt;XXX&lt;/font&gt;" style="rounded=0;whiteSpace=wrap;html=1;fontSize=12;align=left;fontFamily=Manrope;fontSource=https%3A%2F%2Ffonts.googleapis.com%2Fcss%3Ffamily%3DManrope;dashed=1;strokeColor=none;fillColor=#DDE9F5;fontColor=#001135;spacingLeft=4;" parent="1" vertex="1">
          <mxGeometry x="102.25" y="290" width="320.75" height="17.5" as="geometry" />
        </mxCell>
        <mxCell id="LmgRk4A9lyCZ9ittZ9rM-15" value="&lt;font face=&quot;Fira Code&quot; data-font-src=&quot;https://fonts.googleapis.com/css?family=Fira+Code&quot;&gt;Pool&lt;br&gt;&lt;/font&gt;" style="rounded=0;whiteSpace=wrap;html=1;fontSize=12;align=center;strokeColor=none;fontFamily=Manrope;fontSource=https%3A%2F%2Ffonts.googleapis.com%2Fcss%3Ffamily%3DManrope;fontColor=#FFFFFF;spacingLeft=0;verticalAlign=middle;fillColor=#00C9FF;" parent="1" vertex="1">
          <mxGeometry x="102" y="245" width="34.25" height="35" as="geometry" />
        </mxCell>
        <mxCell id="LmgRk4A9lyCZ9ittZ9rM-16" value="&lt;font color=&quot;#98a2ae&quot; style=&quot;font-size: 12px ; line-height: 100%&quot;&gt;IPv4:&lt;/font&gt;&lt;span style=&quot;color: rgb(255 , 255 , 255)&quot;&gt;&amp;nbsp;&lt;/span&gt;&lt;font face=&quot;Fira Code&quot; data-font-src=&quot;https://fonts.googleapis.com/css?family=Fira+Code&quot; style=&quot;font-size: 10px&quot;&gt;172.20.20.0/24&lt;br&gt;&lt;span style=&quot;color: rgb(255 , 255 , 255) ; font-family: &amp;#34;manrope&amp;#34; ; font-size: 12px&quot;&gt;&lt;font color=&quot;#98a2ae&quot;&gt;IPv6:&lt;/font&gt;&amp;nbsp;&lt;/span&gt;&lt;font face=&quot;Fira Code&quot; data-font-src=&quot;https://fonts.googleapis.com/css?family=Fira+Code&quot;&gt;2001:172:20:20::/80&lt;/font&gt;&lt;/font&gt;" style="rounded=0;whiteSpace=wrap;html=1;fontSize=12;align=left;fontFamily=Manrope;fontSource=https%3A%2F%2Ffonts.googleapis.com%2Fcss%3Ffamily%3DManrope;dashed=1;strokeColor=none;fillColor=#DDE9F5;fontColor=#001135;" parent="1" vertex="1">
          <mxGeometry x="136.25" y="245" width="150" height="35" as="geometry" />
        </mxCell>
        <mxCell id="LmgRk4A9lyCZ9ittZ9rM-17" style="rounded=0;orthogonalLoop=1;jettySize=auto;html=1;fontFamily=Manrope;fontSize=12;fontColor=#FFFFFF;endArrow=oval;endFill=1;startArrow=oval;startFill=1;strokeColor=#4BDD33;" parent="1" edge="1">
          <mxGeometry relative="1" as="geometry">
            <mxPoint x="332.75" y="260" as="sourcePoint" />
            <mxPoint x="300" y="290" as="targetPoint" />
            <Array as="points">
              <mxPoint x="312.75" y="260" />
            </Array>
          </mxGeometry>
        </mxCell>
        <mxCell id="LmgRk4A9lyCZ9ittZ9rM-18" value="&lt;font face=&quot;Fira Code&quot; data-font-src=&quot;https://fonts.googleapis.com/css?family=Fira+Code&quot; style=&quot;font-size: 10px&quot;&gt;172.20.20.1&lt;/font&gt;" style="text;html=1;align=left;verticalAlign=middle;resizable=0;points=[];autosize=1;fontSize=14;fontFamily=Manrope;fontColor=#FFFFFF;" parent="1" vertex="1">
          <mxGeometry x="338.75" y="245" width="80" height="25" as="geometry" />
        </mxCell>
        <mxCell id="LmgRk4A9lyCZ9ittZ9rM-19" style="rounded=0;orthogonalLoop=1;jettySize=auto;html=1;fontFamily=Manrope;fontSize=12;fontColor=#FFFFFF;endArrow=oval;endFill=1;startArrow=oval;startFill=1;strokeColor=#4BDD33;" parent="1" edge="1">
          <mxGeometry relative="1" as="geometry">
            <mxPoint x="332.75" y="275" as="sourcePoint" />
            <mxPoint x="300" y="290" as="targetPoint" />
            <Array as="points">
              <mxPoint x="312.75" y="275" />
            </Array>
          </mxGeometry>
        </mxCell>
        <mxCell id="LmgRk4A9lyCZ9ittZ9rM-20" value="&lt;font face=&quot;Fira Code&quot; data-font-src=&quot;https://fonts.googleapis.com/css?family=Fira+Code&quot; style=&quot;font-size: 10px&quot;&gt;2001:172:20:20::1&lt;/font&gt;" style="text;html=1;align=left;verticalAlign=middle;resizable=0;points=[];autosize=1;fontSize=14;fontFamily=Manrope;fontColor=#FFFFFF;" parent="1" vertex="1">
          <mxGeometry x="338.75" y="260" width="115" height="25" as="geometry" />
        </mxCell>
        <mxCell id="LmgRk4A9lyCZ9ittZ9rM-21" value="" style="group" parent="1" vertex="1" connectable="0">
          <mxGeometry x="595" y="333" width="50" height="50" as="geometry" />
        </mxCell>
        <mxCell id="LmgRk4A9lyCZ9ittZ9rM-22" value="" style="group" parent="LmgRk4A9lyCZ9ittZ9rM-21" vertex="1" connectable="0">
          <mxGeometry width="50" height="50" as="geometry" />
        </mxCell>
        <mxCell id="LmgRk4A9lyCZ9ittZ9rM-23" value="" style="whiteSpace=wrap;html=1;aspect=fixed;fillColor=#001135;strokeColor=none;connectable=1;allowArrows=1;fontFamily=Manrope;fontSource=https%3A%2F%2Ffonts.googleapis.com%2Fcss%3Ffamily%3DManrope;" parent="LmgRk4A9lyCZ9ittZ9rM-22" vertex="1">
          <mxGeometry width="50" height="50" as="geometry" />
        </mxCell>
        <mxCell id="LmgRk4A9lyCZ9ittZ9rM-24" value="" style="endArrow=open;html=1;edgeStyle=orthogonalEdgeStyle;rounded=0;endFill=0;startSize=6;endSize=2;strokeColor=#FFFFFF;fontFamily=Manrope;fontSource=https%3A%2F%2Ffonts.googleapis.com%2Fcss%3Ffamily%3DManrope;" parent="LmgRk4A9lyCZ9ittZ9rM-22" edge="1">
          <mxGeometry width="83.33333333333334" height="83.33333333333334" as="geometry">
            <mxPoint x="5" y="20" as="sourcePoint" />
            <mxPoint x="18.333333333333336" y="5" as="targetPoint" />
            <Array as="points">
              <mxPoint x="18.333333333333336" y="20" />
            </Array>
          </mxGeometry>
        </mxCell>
        <mxCell id="LmgRk4A9lyCZ9ittZ9rM-25" value="" style="endArrow=open;html=1;edgeStyle=orthogonalEdgeStyle;rounded=0;endFill=0;startSize=6;endSize=2;strokeColor=#FFFFFF;fontFamily=Manrope;fontSource=https%3A%2F%2Ffonts.googleapis.com%2Fcss%3Ffamily%3DManrope;" parent="LmgRk4A9lyCZ9ittZ9rM-22" edge="1">
          <mxGeometry width="83.33333333333334" height="83.33333333333334" as="geometry">
            <mxPoint x="18.333333333333336" y="45" as="sourcePoint" />
            <mxPoint x="5" y="31.666666666666668" as="targetPoint" />
            <Array as="points">
              <mxPoint x="18.333333333333336" y="31.666666666666668" />
            </Array>
          </mxGeometry>
        </mxCell>
        <mxCell id="LmgRk4A9lyCZ9ittZ9rM-26" value="" style="endArrow=open;html=1;edgeStyle=orthogonalEdgeStyle;rounded=0;endFill=0;startSize=6;endSize=2;strokeColor=#FFFFFF;fontFamily=Manrope;fontSource=https%3A%2F%2Ffonts.googleapis.com%2Fcss%3Ffamily%3DManrope;" parent="LmgRk4A9lyCZ9ittZ9rM-22" edge="1">
          <mxGeometry width="83.33333333333334" height="83.33333333333334" as="geometry">
            <mxPoint x="30" y="5" as="sourcePoint" />
            <mxPoint x="45" y="20" as="targetPoint" />
            <Array as="points">
              <mxPoint x="30" y="20" />
            </Array>
          </mxGeometry>
        </mxCell>
        <mxCell id="LmgRk4A9lyCZ9ittZ9rM-27" value="" style="endArrow=open;html=1;edgeStyle=orthogonalEdgeStyle;rounded=0;endFill=0;startSize=6;endSize=2;strokeColor=#FFFFFF;fontFamily=Manrope;fontSource=https%3A%2F%2Ffonts.googleapis.com%2Fcss%3Ffamily%3DManrope;" parent="LmgRk4A9lyCZ9ittZ9rM-22" edge="1">
          <mxGeometry width="83.33333333333334" height="83.33333333333334" as="geometry">
            <mxPoint x="45" y="31.666666666666668" as="sourcePoint" />
            <mxPoint x="30" y="45" as="targetPoint" />
            <Array as="points">
              <mxPoint x="30" y="31.666666666666668" />
            </Array>
          </mxGeometry>
        </mxCell>
        <mxCell id="LmgRk4A9lyCZ9ittZ9rM-28" value="&lt;font&gt;srl&lt;/font&gt;" style="text;html=1;align=center;verticalAlign=middle;resizable=0;points=[];autosize=1;fontSize=14;fontFamily=Manrope;fontStyle=0;fontColor=#FFFFFF;" parent="1" vertex="1">
          <mxGeometry x="605" y="383" width="30" height="25" as="geometry" />
        </mxCell>
        <mxCell id="LmgRk4A9lyCZ9ittZ9rM-29" value="" style="endArrow=none;html=1;shadow=0;strokeWidth=4;fillColor=#666666;fontFamily=nasa;fontSize=18;fontColor=#FFFFFF;strokeColor=#4BDD33;" parent="1" edge="1">
          <mxGeometry width="50" height="50" relative="1" as="geometry">
            <mxPoint x="599" y="293" as="sourcePoint" />
            <mxPoint x="780" y="293" as="targetPoint" />
          </mxGeometry>
        </mxCell>
        <mxCell id="LmgRk4A9lyCZ9ittZ9rM-30" style="edgeStyle=orthogonalEdgeStyle;rounded=0;orthogonalLoop=1;jettySize=auto;html=1;fontFamily=Manrope;fontSize=12;fontColor=#FFFFFF;endArrow=oval;endFill=1;startArrow=oval;startFill=1;strokeColor=#4BDD33;" parent="1" target="LmgRk4A9lyCZ9ittZ9rM-23" edge="1">
          <mxGeometry relative="1" as="geometry">
            <mxPoint x="620" y="293" as="sourcePoint" />
            <mxPoint x="619.9949999999999" y="321" as="targetPoint" />
          </mxGeometry>
        </mxCell>
        <mxCell id="LmgRk4A9lyCZ9ittZ9rM-31" value="&lt;font&gt;Lab logical diagram&lt;/font&gt;" style="text;html=1;align=center;verticalAlign=middle;resizable=0;points=[];autosize=1;fontSize=14;fontFamily=Manrope;fontStyle=0;fontColor=#FFFFFF;" parent="1" vertex="1">
          <mxGeometry x="619" y="491.5" width="134" height="22" as="geometry" />
        </mxCell>
        <mxCell id="LmgRk4A9lyCZ9ittZ9rM-32" style="rounded=0;orthogonalLoop=1;jettySize=auto;html=1;entryX=0.5;entryY=1;entryDx=0;entryDy=0;startSize=6;endArrow=none;endFill=0;endSize=2;fontFamily=Manrope;fontSize=8;dashed=1;fontSource=https%3A%2F%2Ffonts.googleapis.com%2Fcss%3Ffamily%3DManrope;strokeColor=#FFFFFF;" parent="1" edge="1">
          <mxGeometry relative="1" as="geometry">
            <mxPoint x="490" y="503" as="sourcePoint" />
            <mxPoint x="490" y="165" as="targetPoint" />
          </mxGeometry>
        </mxCell>
        <mxCell id="LmgRk4A9lyCZ9ittZ9rM-33" value="" style="rounded=0;whiteSpace=wrap;html=1;fontSize=12;align=center;strokeColor=none;fontFamily=Manrope;fontSource=https%3A%2F%2Ffonts.googleapis.com%2Fcss%3Ffamily%3DManrope;fontColor=#DDE9F5;fillColor=#BEC8D2;" parent="1" vertex="1">
          <mxGeometry x="270" y="365" width="163.5" height="107.5" as="geometry" />
        </mxCell>
        <mxCell id="LmgRk4A9lyCZ9ittZ9rM-34" value="SR OS" style="rounded=0;whiteSpace=wrap;html=1;fontSize=12;align=center;strokeColor=none;fontFamily=Manrope;fontSource=https%3A%2F%2Ffonts.googleapis.com%2Fcss%3Ffamily%3DManrope;fontColor=#FFFFFF;fillColor=#00C9FF;" parent="1" vertex="1">
          <mxGeometry x="341" y="400" width="87.5" height="37.5" as="geometry" />
        </mxCell>
        <mxCell id="LmgRk4A9lyCZ9ittZ9rM-35" value="eth0" style="rounded=0;whiteSpace=wrap;html=1;fontFamily=Manrope;fontSize=12;fontColor=#FFFFFF;align=center;fillColor=#4BDD33;strokeColor=none;" parent="1" vertex="1">
          <mxGeometry x="360.62" y="385" width="43.5" height="15" as="geometry" />
        </mxCell>
        <mxCell id="LmgRk4A9lyCZ9ittZ9rM-36" value="veth&lt;font color=&quot;#bec8d2&quot;&gt;XXX&lt;/font&gt;" style="rounded=0;whiteSpace=wrap;html=1;fontFamily=Manrope;fontSize=12;fontColor=#FFFFFF;align=center;fillColor=#4BDD33;strokeColor=none;" parent="1" vertex="1">
          <mxGeometry x="356" y="307.5" width="52.75" height="17.5" as="geometry" />
        </mxCell>
        <mxCell id="LmgRk4A9lyCZ9ittZ9rM-37" style="edgeStyle=orthogonalEdgeStyle;rounded=0;orthogonalLoop=1;jettySize=auto;html=1;exitX=0.5;exitY=0;exitDx=0;exitDy=0;entryX=0.5;entryY=1;entryDx=0;entryDy=0;fontFamily=Manrope;fontSize=12;fontColor=#FFFFFF;endArrow=oval;endFill=1;startArrow=oval;startFill=1;strokeColor=#4BDD33;" parent="1" source="LmgRk4A9lyCZ9ittZ9rM-35" target="LmgRk4A9lyCZ9ittZ9rM-36" edge="1">
          <mxGeometry relative="1" as="geometry" />
        </mxCell>
        <mxCell id="LmgRk4A9lyCZ9ittZ9rM-38" value="&lt;font color=&quot;#dde9f5&quot;&gt;netns:&lt;/font&gt;&amp;nbsp;container2" style="rounded=0;whiteSpace=wrap;html=1;fontSize=12;align=center;fontFamily=Manrope;fontSource=https%3A%2F%2Ffonts.googleapis.com%2Fcss%3Ffamily%3DManrope;fontColor=#FFFFFF;fillColor=#98A2AE;rotation=0;strokeColor=none;horizontal=0;verticalAlign=middle;" parent="1" vertex="1">
          <mxGeometry x="433.5" y="365" width="26.5" height="107.5" as="geometry" />
        </mxCell>
        <mxCell id="LmgRk4A9lyCZ9ittZ9rM-39" value="e1-1" style="rounded=0;whiteSpace=wrap;html=1;fontFamily=Manrope;fontSize=12;fontColor=#FFFFFF;align=center;strokeColor=none;rotation=0;horizontal=1;fillColor=#001135;" parent="1" vertex="1">
          <mxGeometry x="200" y="410.62" width="30" height="16.25" as="geometry" />
        </mxCell>
        <mxCell id="LmgRk4A9lyCZ9ittZ9rM-40" value="e1-1-c1-1" style="rounded=0;whiteSpace=wrap;html=1;fontFamily=Manrope;fontSize=12;fontColor=#FFFFFF;align=center;strokeColor=none;rotation=0;horizontal=1;fillColor=#001135;" parent="1" vertex="1">
          <mxGeometry x="280" y="410.62" width="61" height="16.25" as="geometry" />
        </mxCell>
        <mxCell id="LmgRk4A9lyCZ9ittZ9rM-41" style="edgeStyle=orthogonalEdgeStyle;rounded=0;orthogonalLoop=1;jettySize=auto;html=1;exitX=1;exitY=0.5;exitDx=0;exitDy=0;entryX=0;entryY=0.5;entryDx=0;entryDy=0;fontFamily=Manrope;fontSize=12;fontColor=#FFFFFF;endArrow=oval;endFill=1;startArrow=oval;startFill=1;strokeColor=#001135;" parent="1" source="LmgRk4A9lyCZ9ittZ9rM-39" target="LmgRk4A9lyCZ9ittZ9rM-40" edge="1">
          <mxGeometry relative="1" as="geometry">
            <mxPoint x="145" y="379.99" as="sourcePoint" />
            <mxPoint x="145.0050000000001" y="324.99" as="targetPoint" />
          </mxGeometry>
        </mxCell>
        <mxCell id="LmgRk4A9lyCZ9ittZ9rM-49" value="sr-sim" style="text;html=1;align=center;verticalAlign=middle;resizable=0;points=[];autosize=1;fontSize=14;fontFamily=Manrope;fontStyle=0;fontColor=#FFFFFF;" parent="1" vertex="1">
          <mxGeometry x="737.5" y="381" width="60" height="30" as="geometry" />
        </mxCell>
        <mxCell id="LmgRk4A9lyCZ9ittZ9rM-50" style="edgeStyle=orthogonalEdgeStyle;rounded=0;orthogonalLoop=1;jettySize=auto;html=1;fontFamily=Manrope;fontSize=12;fontColor=#FFFFFF;endArrow=oval;endFill=1;startArrow=oval;startFill=1;strokeColor=#4BDD33;" parent="1" edge="1">
          <mxGeometry relative="1" as="geometry">
            <mxPoint x="765.7600000000002" y="293" as="sourcePoint" />
            <mxPoint x="765.7600000000002" y="333" as="targetPoint" />
          </mxGeometry>
        </mxCell>
        <mxCell id="LmgRk4A9lyCZ9ittZ9rM-51" style="edgeStyle=orthogonalEdgeStyle;rounded=0;orthogonalLoop=1;jettySize=auto;html=1;fontFamily=Manrope;fontSize=12;fontColor=#FFFFFF;endArrow=oval;endFill=1;startArrow=oval;startFill=1;entryX=1;entryY=0.5;entryDx=0;entryDy=0;exitX=0;exitY=0.5;exitDx=0;exitDy=0;strokeColor=#98A2AE;" parent="1" source="LmgRk4A9lyCZ9ittZ9rM-53" target="LmgRk4A9lyCZ9ittZ9rM-52" edge="1">
          <mxGeometry relative="1" as="geometry">
            <mxPoint x="625" y="298" as="sourcePoint" />
            <mxPoint x="625" y="338" as="targetPoint" />
          </mxGeometry>
        </mxCell>
        <mxCell id="LmgRk4A9lyCZ9ittZ9rM-52" value="e-1/1" style="rounded=0;whiteSpace=wrap;html=1;fontFamily=Manrope;fontSize=12;fontColor=#FFFFFF;align=center;strokeColor=none;rotation=0;horizontal=1;fillColor=#98A2AE;" parent="1" vertex="1">
          <mxGeometry x="645" y="349.87" width="30" height="16.25" as="geometry" />
        </mxCell>
        <mxCell id="LmgRk4A9lyCZ9ittZ9rM-53" value="1/1/c1/1" style="rounded=0;whiteSpace=wrap;html=1;fontFamily=Manrope;fontSize=12;fontColor=#FFFFFF;align=center;strokeColor=none;rotation=0;horizontal=1;fillColor=#98A2AE;" parent="1" vertex="1">
          <mxGeometry x="700" y="349.38" width="41" height="16.25" as="geometry" />
        </mxCell>
        <mxCell id="LmgRk4A9lyCZ9ittZ9rM-54" value="&lt;font style=&quot;font-size: 12px&quot;&gt;&lt;font color=&quot;#ffffff&quot;&gt;docker network:&lt;/font&gt;&lt;br&gt;&lt;/font&gt;&lt;span style=&quot;font-size: 12px&quot;&gt;&lt;font color=&quot;#bec8d2&quot;&gt;clab&lt;/font&gt;&lt;/span&gt;" style="text;html=1;align=right;verticalAlign=middle;resizable=0;points=[];autosize=1;fontSize=10;fontFamily=Manrope;fontColor=#001135;" parent="1" vertex="1">
          <mxGeometry x="495" y="277.5" width="100" height="30" as="geometry" />
        </mxCell>
        <mxCell id="LmgRk4A9lyCZ9ittZ9rM-43" value="" style="group" parent="1" vertex="1" connectable="0">
          <mxGeometry x="741" y="333" width="50" height="50" as="geometry" />
        </mxCell>
        <mxCell id="LmgRk4A9lyCZ9ittZ9rM-44" value="" style="whiteSpace=wrap;html=1;aspect=fixed;strokeColor=none;connectable=1;allowArrows=1;fontFamily=Manrope;fontSource=https%3A%2F%2Ffonts.googleapis.com%2Fcss%3Ffamily%3DManrope;fillColor=#00C9FF;" parent="LmgRk4A9lyCZ9ittZ9rM-43" vertex="1">
          <mxGeometry width="50" height="50" as="geometry" />
        </mxCell>
        <mxCell id="LmgRk4A9lyCZ9ittZ9rM-45" value="" style="endArrow=open;html=1;edgeStyle=orthogonalEdgeStyle;rounded=0;endFill=0;startSize=6;endSize=2;strokeColor=#FFFFFF;fontFamily=Manrope;fontSource=https%3A%2F%2Ffonts.googleapis.com%2Fcss%3Ffamily%3DManrope;" parent="LmgRk4A9lyCZ9ittZ9rM-43" edge="1">
          <mxGeometry width="83.33333333333334" height="83.33333333333334" as="geometry">
            <mxPoint x="5" y="20" as="sourcePoint" />
            <mxPoint x="18.333333333333336" y="5" as="targetPoint" />
            <Array as="points">
              <mxPoint x="18.333333333333336" y="20" />
            </Array>
          </mxGeometry>
        </mxCell>
        <mxCell id="LmgRk4A9lyCZ9ittZ9rM-46" value="" style="endArrow=open;html=1;edgeStyle=orthogonalEdgeStyle;rounded=0;endFill=0;startSize=6;endSize=2;strokeColor=#FFFFFF;fontFamily=Manrope;fontSource=https%3A%2F%2Ffonts.googleapis.com%2Fcss%3Ffamily%3DManrope;" parent="LmgRk4A9lyCZ9ittZ9rM-43" edge="1">
          <mxGeometry width="83.33333333333334" height="83.33333333333334" as="geometry">
            <mxPoint x="18.333333333333336" y="45" as="sourcePoint" />
            <mxPoint x="5" y="31.666666666666668" as="targetPoint" />
            <Array as="points">
              <mxPoint x="18.333333333333336" y="31.666666666666668" />
            </Array>
          </mxGeometry>
        </mxCell>
        <mxCell id="LmgRk4A9lyCZ9ittZ9rM-47" value="" style="endArrow=open;html=1;edgeStyle=orthogonalEdgeStyle;rounded=0;endFill=0;startSize=6;endSize=2;strokeColor=#FFFFFF;fontFamily=Manrope;fontSource=https%3A%2F%2Ffonts.googleapis.com%2Fcss%3Ffamily%3DManrope;" parent="LmgRk4A9lyCZ9ittZ9rM-43" edge="1">
          <mxGeometry width="83.33333333333334" height="83.33333333333334" as="geometry">
            <mxPoint x="30" y="5" as="sourcePoint" />
            <mxPoint x="45" y="20" as="targetPoint" />
            <Array as="points">
              <mxPoint x="30" y="20" />
            </Array>
          </mxGeometry>
        </mxCell>
        <mxCell id="LmgRk4A9lyCZ9ittZ9rM-48" value="" style="endArrow=open;html=1;edgeStyle=orthogonalEdgeStyle;rounded=0;endFill=0;startSize=6;endSize=2;strokeColor=#FFFFFF;fontFamily=Manrope;fontSource=https%3A%2F%2Ffonts.googleapis.com%2Fcss%3Ffamily%3DManrope;" parent="LmgRk4A9lyCZ9ittZ9rM-43" edge="1">
          <mxGeometry width="83.33333333333334" height="83.33333333333334" as="geometry">
            <mxPoint x="45" y="31.666666666666668" as="sourcePoint" />
            <mxPoint x="30" y="45" as="targetPoint" />
            <Array as="points">
              <mxPoint x="30" y="31.666666666666668" />
            </Array>
          </mxGeometry>
        </mxCell>
      </root>
    </mxGraphModel>
  </diagram>
</mxfile>
